<?xml version="1.0" encoding="UTF-8"?>
<svg id="Outline" xmlns="http://www.w3.org/2000/svg" version="1.1" viewBox="0 0 512 512">
  <!-- Generator: Adobe Illustrator 29.4.0, SVG Export Plug-In . SVG Version: 2.1.0 Build 152)  -->
  <defs>
    <style>
      .st0 {
        fill: #fff;
      }
    </style>
  </defs>
  <path class="st0" d="M493.25,193.47L331.43,31.64c-41.7-41.58-109.17-41.58-150.87,0L18.75,193.47C6.7,205.44-.05,221.74,0,238.72v209.43c0,35.35,28.65,64,64,64h384c35.35,0,64-28.65,64-64v-209.43c.05-16.98-6.7-33.28-18.75-45.25ZM320,469.48h-128v-83.93c0-35.35,28.65-64,64-64s64,28.65,64,64v83.93ZM469.33,448.15c0,11.78-9.55,21.33-21.33,21.33h-85.33v-83.93c0-58.91-47.76-106.67-106.67-106.67s-106.67,47.76-106.67,106.67v83.93h-85.33c-11.78,0-21.33-9.55-21.33-21.33v-209.43c.02-5.65,2.27-11.07,6.25-15.08L210.73,61.87c25.04-24.92,65.5-24.92,90.54,0l161.81,161.83c3.97,3.99,6.21,9.39,6.25,15.02v209.43Z"/>
</svg>